# xmcd
#
# Track frame offsets:
#  150
#  14208
#  28583
#  44407
#  57654
#  70888
#  84345
#  98727
#  112000
#  126860
#  139752
#  152158
#  164771
#  177652
#  192204
#  207399
#  222339
#  235742
#  251021
#  265539
#  279845
#  293983
#  309211
#  324808
#  339486
#
# Disc length: 4702 seconds
#
# Revision: 0
# Processed by: cddbd v1.5.2PL0 Copyright (c) Steve Scherf et al.
# Submitted via: AltoMP3_Maker 3.0
#
DISCID=77125c19
DTITLE=Tampa Red and Georgia Tom - Music Making in Chicago 1928-1935, CD D
DYEAR=1900
DGENRE=
TTITLE0=New Strangers Blues
TTITLE1=Georgia Hound Blues
TTITLE2=Things 'bout Coming My Way
TTITLE3=Cotton Seed Blues
TTITLE4=Stop and Listen Blues
TTITLE5=Down in Spirit Blues
TTITLE6=Mama Don't Leave Me Here
TTITLE7=Please Mister Blues
TTITLE8=No Matter How She Done It
TTITLE9=Reckless Man Blues
TTITLE10=Don't Leave Me Here
TTITLE11=Dead Cats on the Line
TTITLE12=You Can't Get That Stuff No More
TTITLE13=Things 'bout Coming My Way No. 2
TTITLE14=Turpentine Blues
TTITLE15=Western Bound Blues
TTITLE16=I'll Kill Your Soul (and Dare Your Spirit to Move)
TTITLE17=If I Let You Get Away with It (You'll Do It All the Time)
TTITLE18=I'll Find My Way
TTITLE19=You've Got to Do Better
TTITLE20=Kingfish Blues
TTITLE21=That Stuff Is Here
TTITLE22=Black Angel Blues
TTITLE23=Things 'bout Coming My Way
TTITLE24=Denver Blues
EXTD=
EXTT0=
EXTT1=
EXTT2=
EXTT3=
EXTT4=
EXTT5=
EXTT6=
EXTT7=
EXTT8=
EXTT9=
EXTT10=
EXTT11=
EXTT12=
EXTT13=
EXTT14=
EXTT15=
EXTT16=
EXTT17=
EXTT18=
EXTT19=
EXTT20=
EXTT21=
EXTT22=
EXTT23=
EXTT24=
PLAYORDER=
